HIERARCHY
ROOT Hips
{
  OFFSET 5.70366 102.999 -1.77653
  CHANNELS 6 Xposition Yposition Zposition Zrotation Xrotation Yrotation
  JOINT RightUpLeg
  {
    OFFSET -8.9458 -8.66707 0.101652
    CHANNELS 3 Zrotation Xrotation Yrotation
    JOINT RightLeg
    {
      OFFSET 0 -44.4227 1.3727
      CHANNELS 3 Zrotation Xrotation Yrotation
      JOINT RightFoot
      {
        OFFSET 0.253549 -42.0924 -1.46059
        CHANNELS 3 Zrotation Xrotation Yrotation
        JOINT RightToes
        {
          OFFSET 0.04 -4.41509 8.4991
          CHANNELS 3 Zrotation Xrotation Yrotation
          End Site
          {
            OFFSET -0.08 -0.137448 9.77979
          }
        }
      }
    }
  }
  JOINT Spine
  {
    OFFSET 0 11.8905 0
    CHANNELS 3 Zrotation Xrotation Yrotation
    JOINT Spine1
    {
      OFFSET 0 25.6574 0.127663
      CHANNELS 3 Zrotation Xrotation Yrotation
      JOINT HEad
      {
        OFFSET 0 8.73416 0.011341
        CHANNELS 3 Zrotation Xrotation Yrotation
        End Site
        {
          OFFSET -0.29 12.7742 2.51395
        }
      }
      JOINT LeftShoulder1
      {
        OFFSET 8.99 -0.362252 -0.22
        CHANNELS 3 Zrotation Xrotation Yrotation
        JOINT LeftArm
        {
          OFFSET 10.2827 -0.00337999 0.322123
          CHANNELS 3 Zrotation Xrotation Yrotation
          JOINT LeftForeArm
          {
            OFFSET 26.2597 0.099144 -1.42434
            CHANNELS 3 Zrotation Xrotation Yrotation
            JOINT LeftHand
            {
              OFFSET 22.0902 0.085362 1.02216
              CHANNELS 3 Zrotation Xrotation Yrotation
              End Site
              {
                OFFSET 13.419 -0.6 1.50291
              }
            }
          }
        }
      }
      JOINT RightShoulder
      {
        OFFSET -8.99 -0.362252 -0.22
        CHANNELS 3 Zrotation Xrotation Yrotation
        JOINT RightArm
        {
          OFFSET -10.2827 -0.00338 0.322123
          CHANNELS 3 Zrotation Xrotation Yrotation
          JOINT RightForeArm
          {
            OFFSET -26.364 0.099144 -1.42434
            CHANNELS 3 Zrotation Xrotation Yrotation
            JOINT RightHand
            {
              OFFSET -22.0324 0.085362 1.02216
              CHANNELS 3 Zrotation Xrotation Yrotation
              End Site
              {
                OFFSET -13.3284 -0.6 1.50291
              }
            }
          }
        }
      }
    }
  }
  JOINT LeftUpLeg
  {
    OFFSET 8.9458 -8.66707 0.101652
    CHANNELS 3 Zrotation Xrotation Yrotation
    JOINT LeftLeg
    {
      OFFSET 0 -44.4227 1.3727
      CHANNELS 3 Zrotation Xrotation Yrotation
      JOINT LeftFoot
      {
        OFFSET -0.253549 -42.0924 -1.46059
        CHANNELS 3 Zrotation Xrotation Yrotation
        JOINT LeftToes
        {
          OFFSET -0.04 -4.41509 8.4991
          CHANNELS 3 Zrotation Xrotation Yrotation
          End Site
          {
            OFFSET 0.08 -0.047448 9.77979
          }
        }
      }
    }
  }
}
MOTION
Frames:	10
Frame Time:	0.0416667
-155.902 104.078 13.9998 0.283975 0.708567 91.0275 -0.90494 -2.29426 -2.27685 -1.76581 13.6353 -1.64137 -5.56376 -7.21131 -0.155752 0.0462048 0.000530887 0.662642 -0.190499 0.752367 0.130638 -1.50285 2.89943 0.454387 2.40893 1.64438 -0.402937 -28.6633 -2.58123 11.0495 -51.1822 -21.2168 -13.5705 -4.25622 65.1704 -9.95282 2.78393 9.70639 -5.88309 36.6439 0.761397 -2.44438 39.3754 -8.38499 9.21775 -1.31581 49.1676 18.3202 -1.91376 9.83646 0.730375 -1.49707 -2.16756 1.79136 2.29462 10.7133 17.781 0.960067 -3.26505 -0.0320856 -1.31148e-009 8.75241e-006 -1.4796e-008 
-155.882 104.075 14.0833 0.245822 0.74561 90.9177 -0.870847 -2.3909 -2.20293 -1.80339 13.7427 -1.60081 -5.59975 -7.25655 -0.155767 0.0462048 0.000530887 0.662642 -0.0103489 0.468609 0.142961 -2.39078 2.51968 0.644615 3.03931 2.44723 -0.370614 -27.6445 -2.07196 9.81339 -51.5126 -22.3975 -12.5597 -3.87302 65.1159 -9.96839 2.72182 9.71264 -5.87414 39.0588 1.01234 -1.9441 37.1935 -8.46365 8.53734 -0.840767 48.6752 17.9689 -2.08635 9.82673 0.794735 -1.42655 -2.17449 1.89507 2.19252 10.6826 17.8096 0.946997 -3.24557 -0.0320849 -1.31148e-009 8.75241e-006 -1.4796e-008 
-155.799 104.067 14.2371 0.248703 0.743321 90.8503 -0.787574 -2.35209 -2.21279 -1.77069 13.769 -1.51714 -5.69022 -7.32715 -0.155792 0.0462048 0.000530887 0.662642 -0.133349 0.0218748 0.000600953 -2.00043 3.76103 0.449548 2.663 2.04864 0.0755114 -28.2197 -2.46117 10.8367 -51.2857 -21.6618 -13.7438 -4.22424 64.3646 -9.85145 2.18913 9.76528 -5.7778 38.3692 0.909499 -2.14693 38.0334 -8.87243 9.72149 -0.595327 49.5792 17.5699 -2.24861 9.81604 0.988905 -1.27745 -2.14584 2.0162 2.11948 10.7498 17.7334 0.868489 -3.30603 -0.028715 -1.31148e-009 8.75241e-006 -1.4796e-008 
-155.702 104.062 14.4292 0.315112 0.71182 90.9532 -0.651868 -2.15764 -2.25896 -1.69689 13.6818 -1.59247 -5.86474 -7.35847 -0.155803 0.0462048 0.000530887 0.662642 0.0506965 0.139238 -0.0230731 -2.15082 3.56363 0.449242 2.63079 2.61783 -0.059328 -28.0645 -2.37665 10.623 -51.3203 -21.7772 -13.6071 -3.94396 64.0136 -10.1131 1.53042 9.83027 -5.43697 38.6086 0.9536 -2.05814 37.5703 -7.64768 9.26115 -0.906031 48.4436 18.157 -2.07881 9.82711 0.799258 -1.14732 -2.08708 2.01801 2.20913 10.8836 17.5646 0.660939 -3.36959 -0.0201076 -1.31148e-009 8.75241e-006 -1.4796e-008 
-155.636 104.057 14.6754 0.332879 0.753776 90.9944 -0.541384 -2.11184 -2.24133 -1.66236 13.7288 -1.69905 -6.10208 -7.41466 -0.157196 0.0462048 0.000530887 0.662642 0.034581 0.393205 0.00546661 -2.12992 3.33612 0.473395 2.57705 2.96703 0.0315324 -27.9938 -2.33203 10.5074 -51.3795 -21.9211 -13.556 -3.94351 64.2093 -10.0581 1.75928 9.80805 -5.5286 38.7188 0.966899 -2.03304 37.1762 -5.92925 8.80544 -1.41156 46.7563 19.0331 -1.93043 9.8386 0.358181 -1.06002 -2.04451 2.01871 2.27535 10.9044 17.5178 0.502346 -3.31594 -0.0147099 -1.31148e-009 8.75241e-006 -1.4796e-008 
-155.569 104.044 14.9664 0.258985 0.835591 90.9143 -0.4595 -2.22699 -2.21691 -1.62733 13.8763 -1.69762 -6.34049 -7.53108 -0.163732 0.0462048 0.000530887 0.662642 -0.0727381 0.464681 0.0172108 -2.02691 3.42402 0.474016 2.48056 3.09563 0.307468 -28.074 -2.39195 10.6654 -51.2769 -21.7851 -13.7347 -4.2594 64.4459 -9.77625 2.39208 9.74349 -5.96597 38.6531 0.920602 -2.13292 37.4612 -6.79887 9.18116 -1.11503 47.7265 18.536 -2.08458 9.82883 0.574551 -0.941323 -2.06225 2.08817 2.24227 10.8741 17.5006 0.358971 -3.27449 -0.0096448 -1.31148e-009 8.75241e-006 -1.4796e-008 
-155.481 104.034 15.2842 0.145451 0.889154 90.9694 -0.327808 -2.3076 -2.19161 -1.57498 13.9251 -1.83318 -6.56898 -7.6282 -0.169732 0.0462048 0.000530887 0.662642 -0.0461659 0.462992 -0.0166354 -2.06988 3.42233 0.452245 2.47504 3.48836 0.215958 -28.025 -2.37602 10.6288 -51.2112 -21.6297 -13.8016 -4.24665 64.2132 -9.85053 2.207 9.7614 -5.98485 38.6491 0.891005 -2.19828 37.8517 -8.53801 9.52447 -0.532304 49.582 17.5668 -2.27489 9.81344 1.08054 -0.786897 -2.14354 2.12103 2.25287 10.8843 17.3413 0.0917031 -3.25396 0.000484755 -1.31148e-009 8.75241e-006 -1.4796e-008 
-155.393 104.031 15.6364 0.000981321 0.950813 91.1593 -0.166116 -2.39767 -2.13235 -1.532 13.9541 -2.14495 -6.7922 -7.71176 -0.175231 0.0462048 0.000530887 0.662642 -0.0709298 0.475682 -0.0674459 -2.00457 3.41829 0.391114 2.52678 4.02213 0.0195592 -28.0493 -2.3686 10.6026 -51.2412 -21.5882 -13.9589 -4.0868 64.0281 -10.0273 1.78544 9.80481 -5.68058 38.5843 0.881433 -2.21719 37.8286 -8.12999 9.3722 -0.690448 49.2188 17.8107 -2.23431 9.81787 0.999087 -0.628513 -2.25174 2.13748 2.27915 10.8486 17.1372 -0.0950771 -3.14681 0.00713423 -1.31148e-009 8.75241e-006 -1.4796e-008 
-155.295 104.013 16.0136 -0.148581 1.02095 91.3776 -0.00580255 -2.5185 -2.09343 -1.4777 14.0485 -2.45825 -7.00117 -7.85297 -0.184982 0.0462048 0.000530887 0.662642 -0.104979 0.490906 -0.130325 -1.86898 3.41307 0.307929 2.66288 4.7585 0.0325791 -28.1649 -2.39241 10.649 -51.148 -21.3817 -14.0419 -4.05585 63.9263 -10.1385 1.84876 9.79997 -5.51572 38.5303 0.867609 -2.24596 37.6879 -7.29936 9.20962 -0.925309 48.406 18.2267 -2.11582 9.82516 0.738616 -0.435546 -2.41019 2.18443 2.25906 10.9176 16.8323 -0.262043 -3.12881 0.0136499 -1.31148e-009 8.75241e-006 -1.4796e-008 
-155.184 103.969 16.4038 -0.238822 1.07573 91.6955 0.190761 -2.60196 -2.06664 -1.42772 14.2308 -2.85085 -7.24644 -8.06324 -0.20023 0.0462048 0.000530887 0.662642 0.0268778 0.49065 -0.21497 -1.87681 3.37377 0.236229 2.88275 5.93758 -0.0172812 -28.1221 -2.35092 10.5374 -51.0097 -20.9004 -13.9206 -4.02758 63.3107 -10.3518 1.88382 9.79703 -5.46954 38.6021 0.868737 -2.24596 37.7051 -7.93672 9.20814 -0.707195 49.107 17.8678 -2.12757 9.82414 0.805677 -0.189184 -2.68032 2.23728 2.21831 11.3242 16.3781 -0.574176 -3.27125 0.0261981 -1.31148e-009 8.75241e-006 -1.4796e-008 
